<mxfile host="app.diagrams.net" modified="2022-05-06T13:03:49.853Z" agent="5.0 (Windows NT 10.0; Win64; x64) AppleWebKit/537.36 (KHTML, like Gecko) Chrome/101.0.4951.41 Safari/537.36 Edg/101.0.1210.32" etag="D9vIOMuLu6Qlwo3Bksri" version="18.0.0" type="github">
  <diagram id="FG806Fef70JEu1yqkclO" name="Page-1">
    <mxGraphModel dx="1038" dy="579" grid="1" gridSize="10" guides="1" tooltips="1" connect="1" arrows="1" fold="1" page="1" pageScale="1" pageWidth="850" pageHeight="1100" math="0" shadow="0">
      <root>
        <mxCell id="0" />
        <mxCell id="1" parent="0" />
        <mxCell id="xFWoyUKTcyzcPT_Mkslx-3" value="" style="edgeStyle=orthogonalEdgeStyle;rounded=0;orthogonalLoop=1;jettySize=auto;html=1;" edge="1" parent="1" source="xFWoyUKTcyzcPT_Mkslx-1" target="xFWoyUKTcyzcPT_Mkslx-2">
          <mxGeometry relative="1" as="geometry" />
        </mxCell>
        <mxCell id="xFWoyUKTcyzcPT_Mkslx-1" value="start" style="rounded=1;whiteSpace=wrap;html=1;" vertex="1" parent="1">
          <mxGeometry x="45" y="50" width="90" height="20" as="geometry" />
        </mxCell>
        <mxCell id="xFWoyUKTcyzcPT_Mkslx-5" value="" style="edgeStyle=orthogonalEdgeStyle;rounded=0;orthogonalLoop=1;jettySize=auto;html=1;" edge="1" parent="1" source="xFWoyUKTcyzcPT_Mkslx-2" target="xFWoyUKTcyzcPT_Mkslx-4">
          <mxGeometry relative="1" as="geometry" />
        </mxCell>
        <mxCell id="xFWoyUKTcyzcPT_Mkslx-2" value="IF current point is busstop" style="rhombus;whiteSpace=wrap;html=1;" vertex="1" parent="1">
          <mxGeometry x="50" y="110" width="80" height="80" as="geometry" />
        </mxCell>
        <mxCell id="xFWoyUKTcyzcPT_Mkslx-7" value="" style="edgeStyle=orthogonalEdgeStyle;rounded=0;orthogonalLoop=1;jettySize=auto;html=1;" edge="1" parent="1" source="xFWoyUKTcyzcPT_Mkslx-4" target="xFWoyUKTcyzcPT_Mkslx-6">
          <mxGeometry relative="1" as="geometry" />
        </mxCell>
        <mxCell id="xFWoyUKTcyzcPT_Mkslx-4" value="set the agent max speed" style="rounded=1;whiteSpace=wrap;html=1;fillColor=#ffcc99;strokeColor=#36393d;" vertex="1" parent="1">
          <mxGeometry x="30" y="230" width="120" height="60" as="geometry" />
        </mxCell>
        <mxCell id="xFWoyUKTcyzcPT_Mkslx-9" value="" style="edgeStyle=orthogonalEdgeStyle;rounded=0;orthogonalLoop=1;jettySize=auto;html=1;" edge="1" parent="1" source="xFWoyUKTcyzcPT_Mkslx-6" target="xFWoyUKTcyzcPT_Mkslx-8">
          <mxGeometry relative="1" as="geometry" />
        </mxCell>
        <mxCell id="xFWoyUKTcyzcPT_Mkslx-6" value="remove the vehicle id into busstop array" style="rounded=0;whiteSpace=wrap;html=1;" vertex="1" parent="1">
          <mxGeometry x="30" y="320" width="120" height="60" as="geometry" />
        </mxCell>
        <mxCell id="xFWoyUKTcyzcPT_Mkslx-11" value="" style="edgeStyle=orthogonalEdgeStyle;rounded=0;orthogonalLoop=1;jettySize=auto;html=1;" edge="1" parent="1" source="xFWoyUKTcyzcPT_Mkslx-8" target="xFWoyUKTcyzcPT_Mkslx-10">
          <mxGeometry relative="1" as="geometry">
            <Array as="points">
              <mxPoint x="200" y="470" />
              <mxPoint x="200" y="80" />
            </Array>
          </mxGeometry>
        </mxCell>
        <mxCell id="xFWoyUKTcyzcPT_Mkslx-8" value="IF busstop vehicle parking&amp;nbsp;" style="rhombus;whiteSpace=wrap;html=1;rounded=0;" vertex="1" parent="1">
          <mxGeometry x="50" y="430" width="80" height="80" as="geometry" />
        </mxCell>
        <mxCell id="xFWoyUKTcyzcPT_Mkslx-13" value="" style="edgeStyle=orthogonalEdgeStyle;rounded=0;orthogonalLoop=1;jettySize=auto;html=1;" edge="1" parent="1" source="xFWoyUKTcyzcPT_Mkslx-10" target="xFWoyUKTcyzcPT_Mkslx-12">
          <mxGeometry relative="1" as="geometry" />
        </mxCell>
        <mxCell id="xFWoyUKTcyzcPT_Mkslx-10" value="set null against the vehicle parking point" style="whiteSpace=wrap;html=1;rounded=0;" vertex="1" parent="1">
          <mxGeometry x="220" y="50" width="120" height="60" as="geometry" />
        </mxCell>
        <mxCell id="xFWoyUKTcyzcPT_Mkslx-15" value="" style="edgeStyle=orthogonalEdgeStyle;rounded=0;orthogonalLoop=1;jettySize=auto;html=1;" edge="1" parent="1" source="xFWoyUKTcyzcPT_Mkslx-12" target="xFWoyUKTcyzcPT_Mkslx-14">
          <mxGeometry relative="1" as="geometry" />
        </mxCell>
        <mxCell id="xFWoyUKTcyzcPT_Mkslx-12" value="set call back function as true" style="whiteSpace=wrap;html=1;rounded=0;" vertex="1" parent="1">
          <mxGeometry x="220" y="150" width="120" height="60" as="geometry" />
        </mxCell>
        <mxCell id="xFWoyUKTcyzcPT_Mkslx-17" value="" style="edgeStyle=orthogonalEdgeStyle;rounded=0;orthogonalLoop=1;jettySize=auto;html=1;" edge="1" parent="1" source="xFWoyUKTcyzcPT_Mkslx-14" target="xFWoyUKTcyzcPT_Mkslx-16">
          <mxGeometry relative="1" as="geometry" />
        </mxCell>
        <mxCell id="xFWoyUKTcyzcPT_Mkslx-14" value="call&amp;nbsp;subTargetReach&lt;br&gt;Callback" style="rounded=1;whiteSpace=wrap;html=1;fillColor=#f8cecc;gradientColor=#ea6b66;strokeColor=#b85450;" vertex="1" parent="1">
          <mxGeometry x="220" y="250" width="120" height="60" as="geometry" />
        </mxCell>
        <mxCell id="xFWoyUKTcyzcPT_Mkslx-19" value="" style="edgeStyle=orthogonalEdgeStyle;rounded=0;orthogonalLoop=1;jettySize=auto;html=1;" edge="1" parent="1" source="xFWoyUKTcyzcPT_Mkslx-16" target="xFWoyUKTcyzcPT_Mkslx-18">
          <mxGeometry relative="1" as="geometry" />
        </mxCell>
        <mxCell id="xFWoyUKTcyzcPT_Mkslx-16" value="set busstop interval and animation call as false" style="whiteSpace=wrap;html=1;rounded=0;" vertex="1" parent="1">
          <mxGeometry x="220" y="340" width="120" height="60" as="geometry" />
        </mxCell>
        <mxCell id="xFWoyUKTcyzcPT_Mkslx-18" value="end" style="ellipse;whiteSpace=wrap;html=1;rounded=0;" vertex="1" parent="1">
          <mxGeometry x="230" y="440" width="100" height="30" as="geometry" />
        </mxCell>
      </root>
    </mxGraphModel>
  </diagram>
</mxfile>
